<svg xmlns="http://www.w3.org/2000/svg" viewBox="0 0 320 480"><defs><style>.a,.b{fill:none;}.a{stroke:#333;stroke-miterlimit:10;stroke-width:4px;stroke-dasharray:4 8;}</style></defs><title>path</title><polyline class="a" points="288 400 224 400 160.5 400.5 160.5 336.5 96.5 336.5 96 400 32 400 32 336 32 272 96 272 160 272 224.5 272.5 224.5 336.5 288.5 336.5 288.5 272.5 288.5 208.5 224.5 208.5 224.5 144.5 288.5 144.5 288.5 80.5 224.5 80.5 160.5 80.5 160.5 144.5 160.5 208.5 96.5 208.5 32.5 208.5 32.5 144.5 96.5 144.5 96.5 80.5 32.5 80.5"/><path d="M264.86,369.94h-1.72v-3.43h1.72v3.43Zm0,5.15h-1.72v-1.72h1.72Zm5.14-8.58h-5.14V364.8H270Zm0,5.15h-5.14v-1.72H270Zm-1.71,3.43H270v1.71h-5.14v-1.71h3.43Zm1.71-6.86v-1.72h1.71v1.72Zm0,6.86v-3.43h1.71v3.43Z"/><path d="M276.86,376.8V366.51h-3.43V364.8H282v1.71h-3.43V376.8Z"/><path d="M290.57,376.8v-3.43h-5.14v3.43h-1.72V366.51h1.72v5.15h5.14v-5.15h1.72V376.8Zm0-10.29h-5.14V364.8h5.14Z"/><path d="M294,376.8v-12h6.86v1.71h1.71v3.43h-1.71v-3.43h-5.15v3.43h5.15v1.72h-5.15v5.14Zm6.86,0v-5.14h1.71v5.14Z"/><path d="M307.71,376.8V366.51h-3.42V364.8h8.57v1.71h-3.43V376.8Z"/><path d="M24.29,115.09H26v1.71H17.43v-12H26v1.71H19.14v3.43h5.15v1.72H19.14v3.43h5.15Z"/><path d="M27.71,116.8v-12h1.72v3.43h1.71v1.71h1.72v1.72H31.14v-1.72H29.43v6.86Zm6.86,0v-3.43H32.86v-1.71h1.71V104.8h1.72v12Z"/><path d="M43.14,116.8H38v-12h6.86v1.71h1.71v8.58H44.86v1.71Zm0-1.71h1.72v-8.58H39.71v8.58h3.43Z"/><rect class="b" width="320" height="480"/></svg>